<svg version="1.1" id="Layer_1" xmlns="http://www.w3.org/2000/svg" xmlns:xlink="http://www.w3.org/1999/xlink" x="0px" y="0px"
	 width="100%" viewBox="0 0 2247 519" enable-background="new 0 0 2247 519" xml:space="preserve">
<path fill="#000000" opacity="1.000000" stroke="none" 
	d="
M1467.000000,520.000000 
	C978.044067,520.000000 489.588165,520.000000 1.066124,520.000000 
	C1.066124,347.059723 1.066124,174.119400 1.066124,1.089542 
	C750.000000,1.089542 1499.000000,1.089542 2247.964355,1.089542 
	C2247.964355,174.078735 2247.964355,347.039368 2247.964355,520.000000 
	C1987.785767,520.000000 1727.642944,520.000000 1467.000000,520.000000 
M1795.039917,340.697296 
	C1795.080322,353.806213 1795.120728,366.915131 1795.011230,380.907410 
	C1795.060303,383.600098 1795.109375,386.292755 1795.243896,389.651489 
	C1804.701904,402.835999 1814.318970,415.911377 1823.494019,429.289917 
	C1825.516235,432.238678 1827.506348,433.062683 1830.757690,433.049622 
	C1853.918213,432.956604 1877.079102,433.004395 1900.239990,432.989288 
	C1901.688110,432.988342 1903.136230,432.834259 1905.000000,432.727661 
	C1905.000000,430.962189 1905.000000,429.500763 1905.000000,428.039307 
	C1905.000000,322.232635 1905.017944,216.425949 1904.882202,110.619469 
	C1904.879272,108.309013 1903.700195,105.433739 1902.087158,103.780952 
	C1888.937744,90.307564 1875.625000,76.989983 1862.149780,63.842533 
	C1860.503296,62.236198 1857.610352,61.147373 1855.280518,61.121265 
	C1836.121094,60.906544 1816.958252,60.995415 1797.796387,61.009293 
	C1796.345337,61.010342 1794.894165,61.142841 1793.000000,61.236038 
	C1793.000000,63.340748 1792.986328,65.132553 1793.002075,66.924095 
	C1793.332886,104.354034 1793.837769,141.783386 1793.958374,179.213989 
	C1794.124268,230.700485 1793.988525,282.187897 1794.046509,333.674866 
	C1794.048706,335.532654 1794.735718,337.389648 1795.209717,339.491425 
	C1795.209717,339.491425 1795.295410,339.743744 1795.039917,340.697296 
M1293.000000,163.500000 
	C1293.000000,237.982712 1292.988770,312.465424 1293.060669,386.948090 
	C1293.062622,388.950928 1293.392578,391.390594 1294.536987,392.886414 
	C1304.010376,405.268616 1313.906494,417.330536 1323.259399,429.800690 
	C1327.628906,435.626495 1332.217163,438.528259 1340.071045,438.240387 
	C1359.873291,437.514557 1379.719849,438.000000 1399.548706,438.000000 
	C1401.295410,438.000000 1403.041992,438.000000 1405.180420,438.000000 
	C1405.180420,394.945648 1405.180420,352.688812 1405.180420,310.368774 
	C1409.966431,310.368774 1414.345215,310.368774 1419.000000,310.368774 
	C1419.000000,312.548767 1419.000000,314.365295 1419.000000,316.181854 
	C1419.000000,339.843140 1418.924561,363.504974 1419.107422,387.164886 
	C1419.127441,389.750031 1420.019165,392.783722 1421.549927,394.828125 
	C1431.582031,408.226562 1442.063721,421.290375 1451.993408,434.762085 
	C1454.041504,437.540894 1456.013306,438.039398 1458.949951,438.032043 
	C1481.944458,437.974243 1504.939331,438.004730 1527.934082,437.989716 
	C1529.531982,437.988678 1531.129761,437.841003 1532.812744,437.757263 
	C1532.893799,436.475677 1532.990601,435.660156 1532.990723,434.844604 
	C1532.999023,388.855072 1532.947510,342.865387 1533.111938,296.876434 
	C1533.123413,293.694794 1531.426025,292.429932 1529.434814,291.166931 
	C1517.126953,283.359711 1504.834351,275.521240 1492.338135,268.023895 
	C1489.533569,266.341278 1485.981079,265.344025 1482.701660,265.131470 
	C1475.955200,264.694153 1469.160767,265.000000 1462.383545,265.000000 
	C1462.383545,261.003784 1462.383545,257.625854 1462.383545,253.849487 
	C1483.691284,253.849487 1504.618408,253.849487 1525.684082,253.849487 
	C1525.818970,252.835190 1525.976562,252.202515 1525.976807,251.569794 
	C1525.992432,205.746933 1526.012329,159.924042 1525.934326,114.101303 
	C1525.931396,112.401039 1525.357178,110.426300 1524.386353,109.045685 
	C1514.488525,94.971985 1504.317627,81.088646 1494.534302,66.936897 
	C1491.393433,62.393810 1487.862671,60.731049 1482.265503,60.850838 
	C1463.778076,61.246506 1445.277100,61.000000 1426.781250,61.000000 
	C1424.335449,61.000000 1421.889771,61.000000 1418.877686,61.000000 
	C1418.877686,107.270699 1418.877686,152.979904 1418.877686,198.749542 
	C1414.035400,198.749542 1409.773315,198.749542 1405.000000,198.749542 
	C1405.000000,196.721603 1405.000000,194.936234 1405.000000,193.150848 
	C1405.000000,167.656647 1404.729248,142.157990 1405.149536,116.670723 
	C1405.293213,107.954643 1404.144287,101.343681 1396.380981,95.367889 
	C1385.916382,87.312881 1377.030151,77.206894 1367.470947,67.976608 
	C1363.344971,63.992577 1359.004028,61.622147 1352.681030,61.811298 
	C1334.701294,62.349152 1316.694824,62.000000 1298.698975,62.000000 
	C1296.928223,62.000000 1295.157471,62.000000 1293.000000,62.000000 
	C1293.000000,95.914787 1293.000000,129.207397 1293.000000,163.500000 
M948.500000,325.000000 
	C934.076904,325.000000 919.653809,325.000000 905.382568,325.000000 
	C905.382568,319.590698 905.382568,314.861481 905.382568,309.836090 
	C948.031799,309.836090 990.299316,309.836090 1032.613525,309.836090 
	C1032.781128,309.076385 1032.971802,308.614380 1032.972168,308.152222 
	C1032.991577,284.824341 1033.068481,261.495789 1032.864746,238.169739 
	C1032.847778,236.235565 1031.362427,233.803177 1029.812012,232.474640 
	C1017.730591,222.122375 1005.468994,211.980392 993.255920,201.781952 
	C990.038147,199.094879 986.610352,197.812500 982.125305,197.866119 
	C958.300903,198.150848 934.471252,198.000000 910.643433,198.000000 
	C908.871826,198.000000 907.100220,198.000000 905.334412,198.000000 
	C905.334412,192.356033 905.334412,187.299454 905.334412,181.754700 
	C948.053833,181.754700 990.440796,181.754700 1032.999512,181.754700 
	C1032.999512,156.441772 1033.050415,131.622849 1032.885132,106.805367 
	C1032.874023,105.144379 1031.562622,103.152199 1030.285645,101.891960 
	C1017.396240,89.171066 1004.319885,76.639130 991.477112,63.871933 
	C989.250488,61.658340 987.075317,60.943390 984.068726,60.946861 
	C922.749634,61.017666 861.430542,60.998337 800.111389,61.009243 
	C798.505249,61.009529 796.899048,61.146957 795.000000,61.233822 
	C795.000000,63.233337 795.000000,64.874954 795.000000,66.516571 
	C795.000000,86.511940 795.000000,106.507301 795.000000,126.502670 
	C795.000000,212.649368 794.987793,298.796051 795.064697,384.942688 
	C795.066772,387.298828 795.375916,390.107544 796.647217,391.937134 
	C805.758423,405.049164 815.337402,417.837585 824.374573,430.998810 
	C828.030518,436.323029 832.062317,438.241272 838.768005,438.204346 
	C901.418274,437.859467 964.071228,438.000000 1026.723389,438.000000 
	C1028.674316,438.000000 1030.625244,438.000000 1032.579346,438.000000 
	C1032.781982,437.075409 1032.972168,436.611755 1032.972534,436.147980 
	C1032.991821,410.820557 1033.075806,385.492401 1032.846680,360.167053 
	C1032.828369,358.137024 1031.110352,355.496643 1029.384399,354.208740 
	C1017.765930,345.539154 1005.951904,337.130463 994.153320,328.704315 
	C991.285400,326.656128 988.619568,324.703430 984.486572,324.852875 
	C972.837830,325.273987 961.163940,325.000000 948.500000,325.000000 
M1281.000000,402.500000 
	C1281.000000,370.669098 1280.873291,338.837280 1281.102417,307.008026 
	C1281.150635,300.309540 1280.492432,295.161835 1274.377441,290.474274 
	C1263.806885,282.371033 1254.333130,272.838287 1244.385864,263.920227 
	C1241.243164,261.102722 1237.813599,259.467834 1233.305542,259.902435 
	C1228.723999,260.344116 1224.066528,260.000000 1219.273315,260.000000 
	C1219.273315,255.815628 1219.273315,252.091095 1219.273315,247.866180 
	C1239.937134,247.866180 1260.333496,247.866180 1281.000000,247.866180 
	C1281.000000,245.724121 1281.000000,244.078232 1281.000000,242.432343 
	C1281.000000,197.768112 1280.952271,153.103729 1281.088623,108.439926 
	C1281.099731,104.782349 1280.001099,102.323738 1277.432983,99.813225 
	C1265.874634,88.513466 1254.126831,77.360374 1243.312988,65.373375 
	C1239.837646,61.521023 1236.691406,60.961815 1232.346802,60.965427 
	C1171.183472,61.016304 1110.020142,61.000000 1048.856812,61.000000 
	C1046.945679,61.000000 1045.034546,61.000000 1043.173584,61.000000 
	C1043.080688,62.278664 1043.013062,62.775875 1043.012939,63.273102 
	C1043.005615,170.933884 1042.990723,278.594666 1043.087646,386.255341 
	C1043.089600,388.370300 1043.953491,390.798981 1045.177246,392.548157 
	C1054.237061,405.498138 1063.625732,418.218964 1072.614380,431.217072 
	C1076.109863,436.271820 1080.016479,438.361816 1086.479004,438.196289 
	C1107.130981,437.667389 1127.805054,438.000000 1148.470581,438.000000 
	C1150.231201,438.000000 1151.991821,438.000000 1154.245117,438.000000 
	C1154.245117,394.615326 1154.245117,351.889435 1154.245117,309.242737 
	C1160.026123,309.242737 1165.301636,309.242737 1171.000000,309.242737 
	C1171.000000,311.270264 1171.000000,313.061462 1171.000000,314.852631 
	C1171.000000,338.184692 1171.081421,361.517303 1170.922241,384.848297 
	C1170.894775,388.880707 1172.062744,391.995056 1174.518555,395.126709 
	C1184.699707,408.109375 1194.789429,421.168640 1204.615112,434.420380 
	C1206.389404,436.813263 1207.837280,438.072968 1210.875610,438.058228 
	C1233.207275,437.949982 1255.539551,438.002319 1277.871704,437.987366 
	C1278.816162,437.986755 1279.760742,437.821381 1281.000000,437.705078 
	C1281.000000,426.107941 1281.000000,414.803955 1281.000000,402.500000 
M296.000000,174.500000 
	C296.000000,244.815262 295.974091,315.130554 296.096893,385.445618 
	C296.101685,388.193573 296.909790,391.343933 298.396118,393.619171 
	C307.299683,407.248688 316.634918,420.596466 325.517059,434.239441 
	C327.296417,436.972656 328.987457,438.073914 332.177094,438.058685 
	C355.170807,437.949066 378.165283,438.005615 401.159515,437.984192 
	C402.411865,437.983032 403.664001,437.756012 405.197266,437.606750 
	C405.197266,416.934204 405.197266,396.662415 405.197266,376.304382 
	C411.249817,376.304382 416.974640,376.304382 422.999451,376.304382 
	C422.999451,377.581024 422.927429,378.560730 423.011658,379.526794 
	C423.416168,384.165680 421.902222,388.948669 425.048981,393.350586 
	C434.710907,406.866547 444.167206,420.529846 453.657867,434.167603 
	C455.664856,437.051575 458.046478,438.163818 461.768951,438.115875 
	C481.094238,437.866913 500.424438,438.000000 519.752930,438.000000 
	C524.369934,438.000000 528.986877,438.000000 533.999939,438.000000 
	C533.999939,436.207001 533.999939,434.914124 533.999939,433.621246 
	C533.999939,324.815186 534.015625,216.009125 533.885925,107.203217 
	C533.883362,105.058411 532.678040,102.431503 531.168274,100.862450 
	C526.588135,96.102440 521.487671,91.848518 516.763428,87.220367 
	C509.027466,79.641739 501.347626,72.001396 493.820648,64.216415 
	C491.579559,61.898506 489.325897,60.922894 486.054504,60.928078 
	C424.403442,61.025780 362.752197,60.998352 301.100983,61.009232 
	C299.495728,61.009518 297.890472,61.146637 296.000000,61.232967 
	C296.000000,98.905769 296.000000,136.202881 296.000000,174.500000 
M2090.000000,459.500122 
	C2090.000000,452.411499 2090.000000,445.322906 2090.000000,437.852600 
	C2111.352051,437.852600 2131.946045,437.852600 2153.000000,437.852600 
	C2153.000000,435.661224 2153.000000,433.869781 2153.000000,432.078339 
	C2153.000000,409.251190 2153.000000,386.424011 2153.000000,363.596863 
	C2153.000000,279.119690 2153.009521,194.642517 2152.942871,110.165428 
	C2152.941406,108.151154 2152.695312,105.643341 2151.526123,104.214066 
	C2147.656006,99.482674 2143.416992,95.035416 2139.124512,90.670685 
	C2130.362793,81.761246 2121.387939,73.059921 2112.695068,64.084679 
	C2110.396484,61.711411 2108.047363,60.936813 2104.839844,60.940979 
	C2043.356445,61.020821 1981.873047,61.000008 1920.389648,61.000011 
	C1918.650269,61.000011 1916.910767,61.000015 1915.000000,61.000015 
	C1915.000000,63.672745 1914.978271,65.501877 1915.003296,67.330368 
	C1915.331543,91.263313 1915.919067,115.195801 1915.954102,139.129105 
	C1916.073853,220.940155 1915.972900,302.751526 1916.111450,384.562531 
	C1916.116333,387.460358 1917.134888,390.777130 1918.749512,393.181000 
	C1926.967773,405.416962 1935.679810,417.321533 1943.878540,429.570038 
	C1945.753662,432.371216 1947.661255,433.107880 1950.734131,433.056274 
	C1960.008179,432.900421 1969.286499,433.000000 1979.000000,433.000000 
	C1979.000000,439.689423 1978.734497,445.833252 1979.119995,451.935974 
	C1979.294556,454.700134 1980.129883,457.853973 1981.748169,460.023804 
	C1990.773926,472.126160 2000.282471,483.869720 2009.247437,496.015411 
	C2011.041504,498.445862 2012.678711,499.035767 2015.307373,499.029999 
	C2038.800903,498.978424 2062.294678,499.004395 2085.788330,498.987457 
	C2087.066650,498.986511 2088.344971,498.806854 2090.000000,498.681976 
	C2090.000000,485.759552 2090.000000,473.129791 2090.000000,459.500122 
M95.500000,61.000000 
	C77.744675,61.000000 59.989346,61.000000 42.000000,61.000000 
	C42.000000,63.489426 42.000000,65.304901 42.000000,67.120369 
	C42.000000,117.779549 42.000000,168.438721 42.000000,219.097900 
	C42.000000,274.756348 41.974430,330.414825 42.093685,386.072998 
	C42.098442,388.294464 42.958668,390.908600 44.299873,392.670044 
	C54.692631,406.319214 65.324547,419.786011 75.827904,433.351471 
	C78.341240,436.597565 81.090157,438.207092 85.602875,438.143463 
	C107.928467,437.828552 130.260925,438.000000 152.590958,438.000000 
	C154.339798,438.000000 156.088638,438.000000 158.152618,438.000000 
	C158.152618,416.649261 158.152618,396.042328 158.152618,374.941864 
	C200.530441,374.941864 242.586746,374.941864 284.999817,374.941864 
	C284.999817,373.313202 284.999847,372.180267 284.999847,371.047363 
	C284.999908,283.393646 285.019897,195.739914 284.881836,108.086426 
	C284.878479,105.954086 283.620239,103.332153 282.095032,101.771408 
	C269.750763,89.139557 257.144775,76.763741 244.768372,64.162773 
	C242.491287,61.844387 240.226364,60.924034 236.979080,60.931023 
	C190.152878,61.031815 143.326416,61.000000 95.500000,61.000000 
M783.000000,114.548691 
	C784.244507,107.347565 781.359619,102.237968 776.036255,97.289200 
	C764.570251,86.630035 753.695129,75.328766 742.739990,64.131882 
	C740.454956,61.796337 738.166809,60.930119 734.936035,60.934616 
	C671.771912,61.022625 608.607544,61.000008 545.443298,61.000008 
	C543.690979,61.000008 541.938660,61.000008 540.000000,61.000008 
	C540.000000,63.708172 540.000000,65.697380 540.000000,67.686592 
	C540.000000,141.183823 540.000000,214.681046 540.000000,288.178284 
	C540.000000,320.843719 539.972412,353.509216 540.068176,386.174347 
	C540.073975,388.147369 540.529297,390.524536 541.676453,392.024780 
	C551.107117,404.359009 560.907776,416.411804 570.264893,428.800232 
	C574.982727,435.046478 579.848816,438.650055 588.605164,438.279724 
	C609.234131,437.407318 629.925110,438.000000 650.591003,438.000000 
	C652.339966,438.000000 654.088989,438.000000 656.155518,438.000000 
	C656.155518,416.647095 656.155518,396.038544 656.155518,374.931580 
	C698.539062,374.931580 740.598694,374.931580 783.000000,374.931580 
	C783.000000,288.130859 783.000000,201.832993 783.000000,114.548691 
M1656.000000,209.500000 
	C1656.000000,176.003250 1655.955200,142.506348 1656.070679,109.010002 
	C1656.081909,105.743904 1655.115356,103.476273 1652.803345,101.202904 
	C1640.327393,88.934547 1627.942383,76.571335 1615.689697,64.080299 
	C1613.376099,61.721676 1611.038940,60.919601 1607.831421,60.938488 
	C1587.333984,61.059189 1566.835327,61.000015 1546.337158,61.000019 
	C1544.719727,61.000019 1543.102417,61.000019 1541.000000,61.000019 
	C1541.000000,63.308144 1541.000000,65.096558 1541.000000,66.884972 
	C1541.000000,89.049706 1541.000000,111.214447 1541.000000,133.379181 
	C1541.000000,217.205231 1540.983887,301.031311 1541.078491,384.857269 
	C1541.081299,387.347656 1541.540527,390.388245 1542.984131,392.238403 
	C1553.798584,406.099915 1564.972900,419.680115 1575.894287,433.459595 
	C1578.528687,436.783722 1581.380615,438.130493 1585.804199,438.118408 
	C1649.131470,437.945038 1712.459473,438.000000 1775.787231,438.000000 
	C1777.726440,438.000000 1779.665649,438.000000 1782.000000,438.000000 
	C1782.000000,435.756378 1782.000000,434.123535 1782.000000,432.490692 
	C1782.000000,409.659332 1781.870850,386.826599 1782.119385,363.997955 
	C1782.163940,359.898956 1780.423584,357.495026 1777.613159,355.260773 
	C1768.102417,347.699402 1758.355347,340.412201 1749.157837,332.487366 
	C1742.414795,326.677246 1735.632812,323.404755 1726.197876,323.751282 
	C1704.728638,324.539886 1683.210815,324.000000 1661.712646,324.000000 
	C1659.940430,324.000000 1658.168091,324.000000 1656.000000,324.000000 
	C1656.000000,285.757935 1656.000000,248.128967 1656.000000,209.500000 
M2186.181396,60.720795 
	C2185.059082,73.398193 2183.936768,86.075600 2182.785645,99.079582 
	C2185.424316,98.938400 2187.022461,98.852898 2188.808838,98.757324 
	C2189.327881,89.218361 2189.828125,80.022026 2190.362549,70.196457 
	C2191.032227,71.979492 2191.559814,73.266724 2192.002197,74.582573 
	C2194.347656,81.556107 2196.567627,88.574867 2199.090576,95.483101 
	C2199.594727,96.863586 2201.226807,97.832092 2202.338867,98.990501 
	C2203.566162,97.774170 2205.312500,96.773674 2205.924316,95.301559 
	C2207.865479,90.631439 2209.314453,85.759811 2211.088379,81.016357 
	C2212.218750,77.992790 2213.587402,75.058182 2214.849121,72.083687 
	C2215.088379,72.177589 2215.327393,72.271500 2215.566406,72.365402 
	C2216.073486,81.174812 2216.580811,89.984230 2217.085693,98.755112 
	C2219.311768,98.755112 2220.924561,98.755112 2222.544434,98.755112 
	C2222.010498,86.866905 2221.581055,75.211014 2220.828369,63.576015 
	C2220.747559,62.325455 2218.732910,60.175617 2217.713135,60.231472 
	C2215.812256,60.335617 2213.232910,61.271885 2212.290771,62.734512 
	C2210.654541,65.275055 2210.067383,68.486084 2209.006592,71.403725 
	C2207.020996,76.865021 2205.011719,82.317657 2202.804199,88.342201 
	C2199.861816,80.063393 2196.851074,72.649467 2194.651367,65.002274 
	C2193.352295,60.486073 2191.035645,59.217632 2186.181396,60.720795 
M2177.311768,64.999550 
	C2181.475098,65.407257 2181.565430,63.282249 2180.439697,60.255962 
	C2170.977783,60.255962 2161.711670,60.255962 2152.334961,60.255962 
	C2152.334961,61.901123 2152.334961,63.277729 2152.334961,65.229324 
	C2156.034180,65.229324 2159.422363,65.229324 2163.180664,65.229324 
	C2163.180664,76.746086 2163.180664,87.682823 2163.180664,98.625870 
	C2165.292480,98.625870 2167.003418,98.625870 2169.116455,98.625870 
	C2169.116455,87.336853 2169.116455,76.407631 2169.116455,64.999954 
	C2171.805664,64.999954 2174.093506,64.999954 2177.311768,64.999550 
z"/>
<path fill="#0871B2" opacity="1.000000" stroke="none" 
	d="
M1293.000000,163.000000 
	C1293.000000,129.207397 1293.000000,95.914787 1293.000000,62.000000 
	C1295.157471,62.000000 1296.928223,62.000000 1298.698975,62.000000 
	C1316.694824,62.000000 1334.701294,62.349152 1352.681030,61.811298 
	C1359.004028,61.622147 1363.344971,63.992577 1367.470947,67.976608 
	C1377.030151,77.206894 1385.916382,87.312881 1396.380981,95.367889 
	C1404.144287,101.343681 1405.293213,107.954643 1405.149536,116.670723 
	C1404.729248,142.157990 1405.000000,167.656647 1405.000000,193.150848 
	C1405.000000,194.936234 1405.000000,196.721603 1405.000000,198.749542 
	C1409.773315,198.749542 1414.035400,198.749542 1418.877686,198.749542 
	C1418.877686,152.979904 1418.877686,107.270699 1418.877686,61.000000 
	C1421.889771,61.000000 1424.335449,61.000000 1426.781250,61.000000 
	C1445.277100,61.000000 1463.778076,61.246506 1482.265503,60.850838 
	C1487.862671,60.731049 1491.393433,62.393810 1494.534302,66.936897 
	C1504.317627,81.088646 1514.488525,94.971985 1524.386353,109.045685 
	C1525.357178,110.426300 1525.931396,112.401039 1525.934326,114.101303 
	C1526.012329,159.924042 1525.992432,205.746933 1525.976807,251.569794 
	C1525.976562,252.202515 1525.818970,252.835190 1525.684082,253.849487 
	C1504.618408,253.849487 1483.691284,253.849487 1462.383545,253.849487 
	C1462.383545,257.625854 1462.383545,261.003784 1462.383545,265.000000 
	C1469.160767,265.000000 1475.955200,264.694153 1482.701660,265.131470 
	C1485.981079,265.344025 1489.533569,266.341278 1492.338135,268.023895 
	C1504.834351,275.521240 1517.126953,283.359711 1529.434814,291.166931 
	C1531.426025,292.429932 1533.123413,293.694794 1533.111938,296.876434 
	C1532.947510,342.865387 1532.999023,388.855072 1532.990723,434.844604 
	C1532.990601,435.660156 1532.893799,436.475677 1532.812744,437.757263 
	C1531.129761,437.841003 1529.531982,437.988678 1527.934082,437.989716 
	C1504.939331,438.004730 1481.944458,437.974243 1458.949951,438.032043 
	C1456.013306,438.039398 1454.041504,437.540894 1451.993408,434.762085 
	C1442.063721,421.290375 1431.582031,408.226562 1421.549927,394.828125 
	C1420.019165,392.783722 1419.127441,389.750031 1419.107422,387.164886 
	C1418.924561,363.504974 1419.000000,339.843140 1419.000000,316.181854 
	C1419.000000,314.365295 1419.000000,312.548767 1419.000000,310.368774 
	C1414.345215,310.368774 1409.966431,310.368774 1405.180420,310.368774 
	C1405.180420,352.688812 1405.180420,394.945648 1405.180420,438.000000 
	C1403.041992,438.000000 1401.295410,438.000000 1399.548706,438.000000 
	C1379.719849,438.000000 1359.873291,437.514557 1340.071045,438.240387 
	C1332.217163,438.528259 1327.628906,435.626495 1323.259399,429.800690 
	C1313.906494,417.330536 1304.010376,405.268616 1294.536987,392.886414 
	C1293.392578,391.390594 1293.062622,388.950928 1293.060669,386.948090 
	C1292.988770,312.465424 1293.000000,237.982712 1293.000000,163.000000 
M1422.974487,389.819000 
	C1443.904419,389.819000 1464.834229,389.819000 1485.870972,389.819000 
	C1485.870972,348.770386 1485.870972,308.363129 1485.870972,267.314545 
	C1464.367188,267.314545 1443.145264,267.314545 1421.914307,267.314545 
	C1421.914307,245.109192 1421.914307,223.548035 1421.914307,201.342102 
	C1443.470337,201.342102 1464.674194,201.342102 1485.879639,201.342102 
	C1485.879639,155.439285 1485.879639,110.185516 1485.879639,64.876770 
	C1464.205811,64.876770 1442.817871,64.876770 1420.896606,64.876770 
	C1420.896606,110.530678 1420.896606,155.756790 1420.896606,200.856110 
	C1400.099976,200.856110 1379.842529,200.856110 1359.059326,200.856110 
	C1359.059326,155.331955 1359.059326,110.109741 1359.059326,64.715828 
	C1337.621704,64.715828 1316.714844,64.715828 1295.843140,64.715828 
	C1295.843140,173.186722 1295.843140,281.388123 1295.843140,389.593201 
	C1317.013916,389.593201 1337.787354,389.593201 1359.277222,389.593201 
	C1359.277222,349.250763 1359.277222,309.150696 1359.630493,268.901398 
	C1359.851929,268.748077 1359.992188,268.540039 1360.977173,268.182373 
	C1380.884399,268.182373 1400.791748,268.182373 1421.276001,268.182373 
	C1421.276001,308.827881 1421.276001,348.889252 1421.148071,389.471924 
	C1421.448120,389.555939 1421.748169,389.639954 1422.974487,389.819000 
z"/>
<path fill="#22A7DF" opacity="1.000000" stroke="none" 
	d="
M949.000000,325.000000 
	C961.163940,325.000000 972.837830,325.273987 984.486572,324.852875 
	C988.619568,324.703430 991.285400,326.656128 994.153320,328.704315 
	C1005.951904,337.130463 1017.765930,345.539154 1029.384399,354.208740 
	C1031.110352,355.496643 1032.828369,358.137024 1032.846680,360.167053 
	C1033.075806,385.492401 1032.991821,410.820557 1032.972534,436.147980 
	C1032.972168,436.611755 1032.781982,437.075409 1032.579346,438.000000 
	C1030.625244,438.000000 1028.674316,438.000000 1026.723389,438.000000 
	C964.071228,438.000000 901.418274,437.859467 838.768005,438.204346 
	C832.062317,438.241272 828.030518,436.323029 824.374573,430.998810 
	C815.337402,417.837585 805.758423,405.049164 796.647217,391.937134 
	C795.375916,390.107544 795.066772,387.298828 795.064697,384.942688 
	C794.987793,298.796051 795.000000,212.649368 795.000000,126.502670 
	C795.000000,106.507301 795.000000,86.511940 795.000000,66.516571 
	C795.000000,64.874954 795.000000,63.233337 795.000000,61.233822 
	C796.899048,61.146957 798.505249,61.009529 800.111389,61.009243 
	C861.430542,60.998337 922.749634,61.017666 984.068726,60.946861 
	C987.075317,60.943390 989.250488,61.658340 991.477112,63.871933 
	C1004.319885,76.639130 1017.396240,89.171066 1030.285645,101.891960 
	C1031.562622,103.152199 1032.874023,105.144379 1032.885132,106.805367 
	C1033.050415,131.622849 1032.999512,156.441772 1032.999512,181.754700 
	C990.440796,181.754700 948.053833,181.754700 905.334412,181.754700 
	C905.334412,187.299454 905.334412,192.356033 905.334412,198.000000 
	C907.100220,198.000000 908.871826,198.000000 910.643433,198.000000 
	C934.471252,198.000000 958.300903,198.150848 982.125305,197.866119 
	C986.610352,197.812500 990.038147,199.094879 993.255920,201.781952 
	C1005.468994,211.980392 1017.730591,222.122375 1029.812012,232.474640 
	C1031.362427,233.803177 1032.847778,236.235565 1032.864746,238.169739 
	C1033.068481,261.495789 1032.991577,284.824341 1032.972168,308.152222 
	C1032.971802,308.614380 1032.781128,309.076385 1032.613525,309.836090 
	C990.299316,309.836090 948.031799,309.836090 905.382568,309.836090 
	C905.382568,314.861481 905.382568,319.590698 905.382568,325.000000 
	C919.653809,325.000000 934.076904,325.000000 949.000000,325.000000 
M987.613220,72.573425 
	C987.613220,69.807457 987.613220,67.041489 987.613220,64.377800 
	C923.994385,64.377800 861.105042,64.377800 798.241089,64.377800 
	C798.241089,172.673706 798.241089,280.591614 798.241089,388.719055 
	C861.361816,388.719055 924.241333,388.719055 987.613403,388.719055 
	C987.613403,386.811798 987.613464,385.181213 987.613464,383.550659 
	C987.613403,366.720825 987.433167,349.887848 987.728577,333.063202 
	C987.811890,328.319855 986.297852,327.271729 981.805359,327.291229 
	C943.480774,327.457733 905.155090,327.386627 866.829773,327.386627 
	C864.905457,327.386627 862.981140,327.386597 860.778809,327.386597 
	C860.778809,304.888611 860.778809,283.174652 860.778809,260.900513 
	C903.139587,260.900513 945.184021,260.900513 987.178833,260.900513 
	C987.178833,240.637619 987.178833,220.938248 987.178833,200.730057 
	C945.180786,200.730057 903.615234,200.730057 862.147217,200.730057 
	C862.147217,179.618286 862.147217,159.023605 862.147217,137.932388 
	C904.002869,137.932388 945.566040,137.932388 987.612732,137.932388 
	C987.612732,116.142532 987.612732,94.849205 987.613220,72.573425 
z"/>
<path fill="#22A7DF" opacity="1.000000" stroke="none" 
	d="
M1281.000000,403.000000 
	C1281.000000,414.803955 1281.000000,426.107941 1281.000000,437.705078 
	C1279.760742,437.821381 1278.816162,437.986755 1277.871704,437.987366 
	C1255.539551,438.002319 1233.207275,437.949982 1210.875610,438.058228 
	C1207.837280,438.072968 1206.389404,436.813263 1204.615112,434.420380 
	C1194.789429,421.168640 1184.699707,408.109375 1174.518555,395.126709 
	C1172.062744,391.995056 1170.894775,388.880707 1170.922241,384.848297 
	C1171.081421,361.517303 1171.000000,338.184692 1171.000000,314.852631 
	C1171.000000,313.061462 1171.000000,311.270264 1171.000000,309.242737 
	C1165.301636,309.242737 1160.026123,309.242737 1154.245117,309.242737 
	C1154.245117,351.889435 1154.245117,394.615326 1154.245117,438.000000 
	C1151.991821,438.000000 1150.231201,438.000000 1148.470581,438.000000 
	C1127.805054,438.000000 1107.130981,437.667389 1086.479004,438.196289 
	C1080.016479,438.361816 1076.109863,436.271820 1072.614380,431.217072 
	C1063.625732,418.218964 1054.237061,405.498138 1045.177246,392.548157 
	C1043.953491,390.798981 1043.089600,388.370300 1043.087646,386.255341 
	C1042.990723,278.594666 1043.005615,170.933884 1043.012939,63.273102 
	C1043.013062,62.775875 1043.080688,62.278664 1043.173584,61.000000 
	C1045.034546,61.000000 1046.945679,61.000000 1048.856812,61.000000 
	C1110.020142,61.000000 1171.183472,61.016304 1232.346802,60.965427 
	C1236.691406,60.961815 1239.837646,61.521023 1243.312988,65.373375 
	C1254.126831,77.360374 1265.874634,88.513466 1277.432983,99.813225 
	C1280.001099,102.323738 1281.099731,104.782349 1281.088623,108.439926 
	C1280.952271,153.103729 1281.000000,197.768112 1281.000000,242.432343 
	C1281.000000,244.078232 1281.000000,245.724121 1281.000000,247.866180 
	C1260.333496,247.866180 1239.937134,247.866180 1219.273315,247.866180 
	C1219.273315,252.091095 1219.273315,255.815628 1219.273315,260.000000 
	C1224.066528,260.000000 1228.723999,260.344116 1233.305542,259.902435 
	C1237.813599,259.467834 1241.243164,261.102722 1244.385864,263.920227 
	C1254.333130,272.838287 1263.806885,282.371033 1274.377441,290.474274 
	C1280.492432,295.161835 1281.150635,300.309540 1281.102417,307.008026 
	C1280.873291,338.837280 1281.000000,370.669098 1281.000000,403.000000 
M1113.000000,280.501160 
	C1113.000000,274.710632 1113.000000,268.920105 1113.000000,263.074005 
	C1133.380493,263.074005 1153.228516,263.074005 1173.481445,263.074005 
	C1173.481445,305.131927 1173.481445,346.731293 1173.481445,388.582703 
	C1175.160156,388.688568 1176.447998,388.839478 1177.735840,388.840546 
	C1196.063843,388.855896 1214.393555,388.713287 1232.718384,388.950439 
	C1237.150146,389.007782 1237.930054,387.299469 1237.918701,383.386871 
	C1237.807129,344.731812 1237.792358,306.076111 1237.935791,267.421265 
	C1237.951416,263.221191 1236.653076,262.019562 1232.526733,262.065369 
	C1214.867432,262.261475 1197.204712,262.148895 1179.543213,262.148865 
	C1177.776855,262.148865 1176.010376,262.148865 1173.626587,262.148865 
	C1173.626587,241.434799 1173.626587,221.383835 1173.626587,200.851105 
	C1175.330566,200.851105 1177.125854,200.851105 1178.921143,200.851105 
	C1196.582642,200.851089 1214.247192,200.668655 1231.903687,200.967529 
	C1236.894165,201.052002 1237.964844,199.369446 1237.946655,194.701141 
	C1237.783203,152.880661 1237.853760,111.059303 1237.841919,69.238197 
	C1237.841431,67.624962 1237.702148,66.011757 1237.627686,64.399651 
	C1173.548828,64.399651 1109.860596,64.399651 1046.253418,64.399651 
	C1046.253418,172.711075 1046.253418,280.622681 1046.253418,388.689514 
	C1068.555054,388.689514 1090.602295,388.689514 1113.000000,388.689514 
	C1113.000000,352.753632 1113.000000,317.127075 1113.000000,280.501160 
z"/>
<path fill="#22A7DF" opacity="1.000000" stroke="none" 
	d="
M296.000000,174.000000 
	C296.000000,136.202881 296.000000,98.905769 296.000000,61.232967 
	C297.890472,61.146637 299.495728,61.009518 301.100983,61.009232 
	C362.752197,60.998352 424.403442,61.025780 486.054504,60.928078 
	C489.325897,60.922894 491.579559,61.898506 493.820648,64.216415 
	C501.347626,72.001396 509.027466,79.641739 516.763428,87.220367 
	C521.487671,91.848518 526.588135,96.102440 531.168274,100.862450 
	C532.678040,102.431503 533.883362,105.058411 533.885925,107.203217 
	C534.015625,216.009125 533.999939,324.815186 533.999939,433.621246 
	C533.999939,434.914124 533.999939,436.207001 533.999939,438.000000 
	C528.986877,438.000000 524.369934,438.000000 519.752930,438.000000 
	C500.424438,438.000000 481.094238,437.866913 461.768951,438.115875 
	C458.046478,438.163818 455.664856,437.051575 453.657867,434.167603 
	C444.167206,420.529846 434.710907,406.866547 425.048981,393.350586 
	C421.902222,388.948669 423.416168,384.165680 423.011658,379.526794 
	C422.927429,378.560730 422.999451,377.581024 422.999451,376.304382 
	C416.974640,376.304382 411.249817,376.304382 405.197266,376.304382 
	C405.197266,396.662415 405.197266,416.934204 405.197266,437.606750 
	C403.664001,437.756012 402.411865,437.983032 401.159515,437.984192 
	C378.165283,438.005615 355.170807,437.949066 332.177094,438.058685 
	C328.987457,438.073914 327.296417,436.972656 325.517059,434.239441 
	C316.634918,420.596466 307.299683,407.248688 298.396118,393.619171 
	C296.909790,391.343933 296.101685,388.193573 296.096893,385.445618 
	C295.974091,315.130554 296.000000,244.815262 296.000000,174.000000 
M489.613251,253.500061 
	C489.613251,190.427032 489.613251,127.353989 489.613251,64.333504 
	C425.639618,64.333504 362.406982,64.333504 299.234375,64.333504 
	C299.234375,172.685394 299.234375,280.703339 299.234375,388.716034 
	C319.870056,388.716034 340.121155,388.716034 360.965729,388.716034 
	C360.965729,366.732483 360.965729,345.024353 360.965729,323.255951 
	C382.815491,323.255951 404.068207,323.255951 425.912384,323.255951 
	C425.912384,345.212891 425.912384,366.922943 425.912384,388.679932 
	C447.396790,388.679932 468.286713,388.679932 489.612762,388.679932 
	C489.612762,343.740906 489.612762,299.120514 489.613251,253.500061 
z"/>
<path fill="#0871B2" opacity="1.000000" stroke="none" 
	d="
M2090.000000,460.000061 
	C2090.000000,473.129791 2090.000000,485.759552 2090.000000,498.681976 
	C2088.344971,498.806854 2087.066650,498.986511 2085.788330,498.987457 
	C2062.294678,499.004395 2038.800903,498.978424 2015.307373,499.029999 
	C2012.678711,499.035767 2011.041504,498.445862 2009.247437,496.015411 
	C2000.282471,483.869720 1990.773926,472.126160 1981.748169,460.023804 
	C1980.129883,457.853973 1979.294556,454.700134 1979.119995,451.935974 
	C1978.734497,445.833252 1979.000000,439.689423 1979.000000,433.000000 
	C1969.286499,433.000000 1960.008179,432.900421 1950.734131,433.056274 
	C1947.661255,433.107880 1945.753662,432.371216 1943.878540,429.570038 
	C1935.679810,417.321533 1926.967773,405.416962 1918.749512,393.181000 
	C1917.134888,390.777130 1916.116333,387.460358 1916.111450,384.562531 
	C1915.972900,302.751526 1916.073853,220.940155 1915.954102,139.129105 
	C1915.919067,115.195801 1915.331543,91.263313 1915.003296,67.330368 
	C1914.978271,65.501877 1915.000000,63.672745 1915.000000,61.000015 
	C1916.910767,61.000015 1918.650269,61.000011 1920.389648,61.000011 
	C1981.873047,61.000008 2043.356445,61.020821 2104.839844,60.940979 
	C2108.047363,60.936813 2110.396484,61.711411 2112.695068,64.084679 
	C2121.387939,73.059921 2130.362793,81.761246 2139.124512,90.670685 
	C2143.416992,95.035416 2147.656006,99.482674 2151.526123,104.214066 
	C2152.695312,105.643341 2152.941406,108.151154 2152.942871,110.165428 
	C2153.009521,194.642517 2153.000000,279.119690 2153.000000,363.596863 
	C2153.000000,386.424011 2153.000000,409.251190 2153.000000,432.078339 
	C2153.000000,433.869781 2153.000000,435.661224 2153.000000,437.852600 
	C2131.946045,437.852600 2111.352051,437.852600 2090.000000,437.852600 
	C2090.000000,445.322906 2090.000000,452.411499 2090.000000,460.000061 
M1918.446899,134.445740 
	C1918.446899,219.198608 1918.446899,303.951477 1918.446899,389.108917 
	C1940.190796,389.108917 1960.781616,389.108917 1981.870850,389.108917 
	C1981.870850,411.245911 1981.870850,432.982727 1981.870850,454.905823 
	C2003.107544,454.905823 2023.839844,454.905823 2045.023682,454.905823 
	C2045.023682,432.909454 2045.023682,411.164124 2045.023682,388.919495 
	C2066.695801,388.919495 2087.921387,388.919495 2108.850586,388.919495 
	C2108.850586,280.363342 2108.850586,172.314575 2108.850586,64.277817 
	C2045.058105,64.277817 1981.968628,64.277817 1918.447266,64.277817 
	C1918.447266,87.522133 1918.447266,110.491318 1918.446899,134.445740 
z"/>
<path fill="#22A7DF" opacity="1.000000" stroke="none" 
	d="
M96.000000,61.000000 
	C143.326416,61.000000 190.152878,61.031815 236.979080,60.931023 
	C240.226364,60.924034 242.491287,61.844387 244.768372,64.162773 
	C257.144775,76.763741 269.750763,89.139557 282.095032,101.771408 
	C283.620239,103.332153 284.878479,105.954086 284.881836,108.086426 
	C285.019897,195.739914 284.999908,283.393646 284.999847,371.047363 
	C284.999847,372.180267 284.999817,373.313202 284.999817,374.941864 
	C242.586746,374.941864 200.530441,374.941864 158.152618,374.941864 
	C158.152618,396.042328 158.152618,416.649261 158.152618,438.000000 
	C156.088638,438.000000 154.339798,438.000000 152.590958,438.000000 
	C130.260925,438.000000 107.928467,437.828552 85.602875,438.143463 
	C81.090157,438.207092 78.341240,436.597565 75.827904,433.351471 
	C65.324547,419.786011 54.692631,406.319214 44.299873,392.670044 
	C42.958668,390.908600 42.098442,388.294464 42.093685,386.072998 
	C41.974430,330.414825 42.000000,274.756348 42.000000,219.097900 
	C42.000000,168.438721 42.000000,117.779549 42.000000,67.120369 
	C42.000000,65.304901 42.000000,63.489426 42.000000,61.000000 
	C59.989346,61.000000 77.744675,61.000000 96.000000,61.000000 
M44.851086,213.500000 
	C44.851086,271.893219 44.851086,330.286469 44.851086,388.648499 
	C67.291183,388.648499 89.012444,388.648499 111.702255,388.648499 
	C111.702255,367.633209 111.702255,346.963654 111.702255,325.809021 
	C155.063736,325.809021 197.455170,325.809021 239.758820,325.809021 
	C239.758820,238.300476 239.758820,151.283463 239.758820,64.322296 
	C174.645477,64.322296 109.922737,64.322296 44.850975,64.322296 
	C44.850975,113.929176 44.850975,163.214584 44.851086,213.500000 
z"/>
<path fill="#22A7DF" opacity="1.000000" stroke="none" 
	d="
M783.000000,115.041916 
	C783.000000,201.832993 783.000000,288.130859 783.000000,374.931580 
	C740.598694,374.931580 698.539062,374.931580 656.155518,374.931580 
	C656.155518,396.038544 656.155518,416.647095 656.155518,438.000000 
	C654.088989,438.000000 652.339966,438.000000 650.591003,438.000000 
	C629.925110,438.000000 609.234131,437.407318 588.605164,438.279724 
	C579.848816,438.650055 574.982727,435.046478 570.264893,428.800232 
	C560.907776,416.411804 551.107117,404.359009 541.676453,392.024780 
	C540.529297,390.524536 540.073975,388.147369 540.068176,386.174347 
	C539.972412,353.509216 540.000000,320.843719 540.000000,288.178284 
	C540.000000,214.681046 540.000000,141.183823 540.000000,67.686592 
	C540.000000,65.697380 540.000000,63.708172 540.000000,61.000008 
	C541.938660,61.000008 543.690979,61.000008 545.443298,61.000008 
	C608.607544,61.000008 671.771912,61.022625 734.936035,60.934616 
	C738.166809,60.930119 740.454956,61.796337 742.739990,64.131882 
	C753.695129,75.328766 764.570251,86.630035 776.036255,97.289200 
	C781.359619,102.237968 784.244507,107.347565 783.000000,115.041916 
M738.613220,230.500061 
	C738.613220,175.092682 738.613220,119.685318 738.613220,64.376434 
	C672.981873,64.376434 608.100159,64.376434 543.402588,64.376434 
	C543.402588,172.779984 543.402588,280.806671 543.402588,388.717773 
	C565.402344,388.717773 586.998535,388.717773 609.566284,388.717773 
	C609.566284,367.776367 609.566284,347.103088 609.566284,325.901672 
	C653.082153,325.901672 695.626709,325.901672 738.612793,325.901672 
	C738.612793,294.082428 738.612793,262.791260 738.613220,230.500061 
z"/>
<path fill="#0871B2" opacity="1.000000" stroke="none" 
	d="
M1656.000000,210.000000 
	C1656.000000,248.128967 1656.000000,285.757935 1656.000000,324.000000 
	C1658.168091,324.000000 1659.940430,324.000000 1661.712646,324.000000 
	C1683.210815,324.000000 1704.728638,324.539886 1726.197876,323.751282 
	C1735.632812,323.404755 1742.414795,326.677246 1749.157837,332.487366 
	C1758.355347,340.412201 1768.102417,347.699402 1777.613159,355.260773 
	C1780.423584,357.495026 1782.163940,359.898956 1782.119385,363.997955 
	C1781.870850,386.826599 1782.000000,409.659332 1782.000000,432.490692 
	C1782.000000,434.123535 1782.000000,435.756378 1782.000000,438.000000 
	C1779.665649,438.000000 1777.726440,438.000000 1775.787231,438.000000 
	C1712.459473,438.000000 1649.131470,437.945038 1585.804199,438.118408 
	C1581.380615,438.130493 1578.528687,436.783722 1575.894287,433.459595 
	C1564.972900,419.680115 1553.798584,406.099915 1542.984131,392.238403 
	C1541.540527,390.388245 1541.081299,387.347656 1541.078491,384.857269 
	C1540.983887,301.031311 1541.000000,217.205231 1541.000000,133.379181 
	C1541.000000,111.214447 1541.000000,89.049706 1541.000000,66.884972 
	C1541.000000,65.096558 1541.000000,63.308144 1541.000000,61.000019 
	C1543.102417,61.000019 1544.719727,61.000019 1546.337158,61.000019 
	C1566.835327,61.000015 1587.333984,61.059189 1607.831421,60.938488 
	C1611.038940,60.919601 1613.376099,61.721676 1615.689697,64.080299 
	C1627.942383,76.571335 1640.327393,88.934547 1652.803345,101.202904 
	C1655.115356,103.476273 1656.081909,105.743904 1656.070679,109.010002 
	C1655.955200,142.506348 1656.000000,176.003250 1656.000000,210.000000 
M1544.000000,206.500000 
	C1544.000000,267.244904 1544.000000,327.989807 1544.000000,388.633484 
	C1608.500610,388.633484 1672.366943,388.633484 1736.227783,388.633484 
	C1736.227783,367.851105 1736.227783,347.436981 1736.227783,326.310974 
	C1694.556641,326.310974 1653.204346,326.310974 1611.425293,326.310974 
	C1611.425293,238.512924 1611.425293,151.429199 1611.425293,64.306549 
	C1588.753540,64.306549 1566.519653,64.306549 1544.000000,64.306549 
	C1544.000000,111.575005 1544.000000,158.537506 1544.000000,206.500000 
z"/>
<path fill="#FFFFFF" opacity="1.000000" stroke="none" 
	d="
M1795.158447,388.985443 
	C1795.109375,386.292755 1795.060303,383.600098 1795.385742,380.171143 
	C1795.840210,370.634552 1796.008301,361.833832 1795.963013,353.034180 
	C1795.940186,348.602997 1795.530273,344.173828 1795.295410,339.743744 
	C1795.295410,339.743744 1795.209717,339.491425 1795.292114,338.890564 
	C1795.374512,247.023697 1795.374512,155.757721 1795.374512,64.246307 
	C1816.475708,64.246307 1837.031738,64.246307 1857.754883,64.246307 
	C1857.754883,172.522522 1857.754883,280.555939 1857.754883,388.985443 
	C1836.727661,388.985443 1815.942993,388.985443 1795.158447,388.985443 
z"/>
<path fill="#0871B2" opacity="1.000000" stroke="none" 
	d="
M1795.201172,389.318481 
	C1815.942993,388.985443 1836.727661,388.985443 1857.754883,388.985443 
	C1857.754883,280.555939 1857.754883,172.522522 1857.754883,64.246307 
	C1837.031738,64.246307 1816.475708,64.246307 1795.374512,64.246307 
	C1795.374512,155.757721 1795.374512,247.023697 1795.239014,338.768341 
	C1794.735718,337.389648 1794.048706,335.532654 1794.046509,333.674866 
	C1793.988525,282.187897 1794.124268,230.700485 1793.958374,179.213989 
	C1793.837769,141.783386 1793.332886,104.354034 1793.002075,66.924095 
	C1792.986328,65.132553 1793.000000,63.340748 1793.000000,61.236038 
	C1794.894165,61.142841 1796.345337,61.010342 1797.796387,61.009293 
	C1816.958252,60.995415 1836.121094,60.906544 1855.280518,61.121265 
	C1857.610352,61.147373 1860.503296,62.236198 1862.149780,63.842533 
	C1875.625000,76.989983 1888.937744,90.307564 1902.087158,103.780952 
	C1903.700195,105.433739 1904.879272,108.309013 1904.882202,110.619469 
	C1905.017944,216.425949 1905.000000,322.232635 1905.000000,428.039307 
	C1905.000000,429.500763 1905.000000,430.962189 1905.000000,432.727661 
	C1903.136230,432.834259 1901.688110,432.988342 1900.239990,432.989288 
	C1877.079102,433.004395 1853.918213,432.956604 1830.757690,433.049622 
	C1827.506348,433.062683 1825.516235,432.238678 1823.494019,429.289917 
	C1814.318970,415.911377 1804.701904,402.835999 1795.201172,389.318481 
z"/>
<path fill="#0871B2" opacity="1.000000" stroke="none" 
	d="
M2186.512695,60.437916 
	C2191.035645,59.217632 2193.352295,60.486073 2194.651367,65.002274 
	C2196.851074,72.649467 2199.861816,80.063393 2202.804199,88.342201 
	C2205.011719,82.317657 2207.020996,76.865021 2209.006592,71.403725 
	C2210.067383,68.486084 2210.654541,65.275055 2212.290771,62.734512 
	C2213.232910,61.271885 2215.812256,60.335617 2217.713135,60.231472 
	C2218.732910,60.175617 2220.747559,62.325455 2220.828369,63.576015 
	C2221.581055,75.211014 2222.010498,86.866905 2222.544434,98.755112 
	C2220.924561,98.755112 2219.311768,98.755112 2217.085693,98.755112 
	C2216.580811,89.984230 2216.073486,81.174812 2215.566406,72.365402 
	C2215.327393,72.271500 2215.088379,72.177589 2214.849121,72.083687 
	C2213.587402,75.058182 2212.218750,77.992790 2211.088379,81.016357 
	C2209.314453,85.759811 2207.865479,90.631439 2205.924316,95.301559 
	C2205.312500,96.773674 2203.566162,97.774170 2202.338867,98.990509 
	C2201.226807,97.832092 2199.594727,96.863586 2199.090576,95.483101 
	C2196.567627,88.574867 2194.347656,81.556107 2192.002197,74.582573 
	C2191.559814,73.266724 2191.032227,71.979492 2190.362549,70.196457 
	C2189.828125,80.022026 2189.327881,89.218361 2188.808838,98.757324 
	C2187.022461,98.852898 2185.424316,98.938400 2182.785645,99.079582 
	C2183.936768,86.075600 2185.059082,73.398193 2186.512695,60.437916 
z"/>
<path fill="#0871B2" opacity="1.000000" stroke="none" 
	d="
M2176.846436,64.999756 
	C2174.093506,64.999954 2171.805664,64.999954 2169.116455,64.999954 
	C2169.116455,76.407631 2169.116455,87.336853 2169.116455,98.625870 
	C2167.003418,98.625870 2165.292480,98.625870 2163.180664,98.625870 
	C2163.180664,87.682823 2163.180664,76.746086 2163.180664,65.229324 
	C2159.422363,65.229324 2156.034180,65.229324 2152.334961,65.229324 
	C2152.334961,63.277729 2152.334961,61.901123 2152.334961,60.255962 
	C2161.711670,60.255962 2170.977783,60.255962 2180.439697,60.255962 
	C2181.565430,63.282249 2181.475098,65.407257 2176.846436,64.999756 
z"/>
<path fill="#84B8D9" opacity="1.000000" stroke="none" 
	d="
M1795.167725,340.220520 
	C1795.530273,344.173828 1795.940186,348.602997 1795.963013,353.034180 
	C1796.008301,361.833832 1795.840210,370.634552 1795.460693,379.729431 
	C1795.120728,366.915131 1795.080322,353.806213 1795.167725,340.220520 
z"/>
<path fill="#FFFFFF" opacity="1.000000" stroke="none" 
	d="
M1421.276001,388.950623 
	C1421.276001,348.889252 1421.276001,308.827881 1421.276001,268.182373 
	C1400.791748,268.182373 1380.884399,268.182373 1360.253418,268.166138 
	C1359.445679,268.450165 1359.361450,268.750397 1359.277222,269.050629 
	C1359.277222,309.150696 1359.277222,349.250763 1359.277222,389.593201 
	C1337.787354,389.593201 1317.013916,389.593201 1295.843140,389.593201 
	C1295.843140,281.388123 1295.843140,173.186722 1295.843140,64.715828 
	C1316.714844,64.715828 1337.621704,64.715828 1359.059326,64.715828 
	C1359.059326,110.109741 1359.059326,155.331955 1359.059326,200.856110 
	C1379.842529,200.856110 1400.099976,200.856110 1420.896606,200.856110 
	C1420.896606,155.756790 1420.896606,110.530678 1420.896606,64.876770 
	C1442.817871,64.876770 1464.205811,64.876770 1485.879639,64.876770 
	C1485.879639,110.185516 1485.879639,155.439285 1485.879639,201.342102 
	C1464.674194,201.342102 1443.470337,201.342102 1421.914307,201.342102 
	C1421.914307,223.548035 1421.914307,245.109192 1421.914307,267.314545 
	C1443.145264,267.314545 1464.367188,267.314545 1485.870972,267.314545 
	C1485.870972,308.363129 1485.870972,348.770386 1485.870972,389.819000 
	C1464.834229,389.819000 1443.904419,389.819000 1422.437256,389.594849 
	C1421.746826,389.149353 1421.538818,389.009338 1421.276001,388.950623 
z"/>
<path fill="#4695C5" opacity="1.000000" stroke="none" 
	d="
M1359.453857,268.976013 
	C1359.361450,268.750397 1359.445679,268.450165 1359.790527,268.213562 
	C1359.992188,268.540039 1359.851929,268.748077 1359.453857,268.976013 
z"/>
<path fill="#C1DCEC" opacity="1.000000" stroke="none" 
	d="
M1421.212036,389.211273 
	C1421.538818,389.009338 1421.746826,389.149353 1421.974121,389.547333 
	C1421.748169,389.639954 1421.448120,389.555939 1421.212036,389.211273 
z"/>
<path fill="#FFFFFF" opacity="1.000000" stroke="none" 
	d="
M987.612976,73.064651 
	C987.612732,94.849205 987.612732,116.142532 987.612732,137.932388 
	C945.566040,137.932388 904.002869,137.932388 862.147217,137.932388 
	C862.147217,159.023605 862.147217,179.618286 862.147217,200.730057 
	C903.615234,200.730057 945.180786,200.730057 987.178833,200.730057 
	C987.178833,220.938248 987.178833,240.637619 987.178833,260.900513 
	C945.184021,260.900513 903.139587,260.900513 860.778809,260.900513 
	C860.778809,283.174652 860.778809,304.888611 860.778809,327.386597 
	C862.981140,327.386597 864.905457,327.386627 866.829773,327.386627 
	C905.155090,327.386627 943.480774,327.457733 981.805359,327.291229 
	C986.297852,327.271729 987.811890,328.319855 987.728577,333.063202 
	C987.433167,349.887848 987.613403,366.720825 987.613464,383.550659 
	C987.613464,385.181213 987.613403,386.811798 987.613403,388.719055 
	C924.241333,388.719055 861.361816,388.719055 798.241089,388.719055 
	C798.241089,280.591614 798.241089,172.673706 798.241089,64.377800 
	C861.105042,64.377800 923.994385,64.377800 987.613220,64.377800 
	C987.613220,67.041489 987.613220,69.807457 987.612976,73.064651 
z"/>
<path fill="#FFFFFF" opacity="1.000000" stroke="none" 
	d="
M1113.000000,281.000854 
	C1113.000000,317.127075 1113.000000,352.753632 1113.000000,388.689514 
	C1090.602295,388.689514 1068.555054,388.689514 1046.253418,388.689514 
	C1046.253418,280.622681 1046.253418,172.711075 1046.253418,64.399651 
	C1109.860596,64.399651 1173.548828,64.399651 1237.627686,64.399651 
	C1237.702148,66.011757 1237.841431,67.624962 1237.841919,69.238197 
	C1237.853760,111.059303 1237.783203,152.880661 1237.946655,194.701141 
	C1237.964844,199.369446 1236.894165,201.052002 1231.903687,200.967529 
	C1214.247192,200.668655 1196.582642,200.851089 1178.921143,200.851105 
	C1177.125854,200.851105 1175.330566,200.851105 1173.626587,200.851105 
	C1173.626587,221.383835 1173.626587,241.434799 1173.626587,262.148865 
	C1176.010376,262.148865 1177.776855,262.148865 1179.543213,262.148865 
	C1197.204712,262.148895 1214.867432,262.261475 1232.526733,262.065369 
	C1236.653076,262.019562 1237.951416,263.221191 1237.935791,267.421265 
	C1237.792358,306.076111 1237.807129,344.731812 1237.918701,383.386871 
	C1237.930054,387.299469 1237.150146,389.007782 1232.718384,388.950439 
	C1214.393555,388.713287 1196.063843,388.855896 1177.735840,388.840546 
	C1176.447998,388.839478 1175.160156,388.688568 1173.481445,388.582703 
	C1173.481445,346.731293 1173.481445,305.131927 1173.481445,263.074005 
	C1153.228516,263.074005 1133.380493,263.074005 1113.000000,263.074005 
	C1113.000000,268.920105 1113.000000,274.710632 1113.000000,281.000854 
M1173.000000,154.500092 
	C1173.000000,147.374817 1173.000000,140.249557 1173.000000,132.947968 
	C1151.756714,132.947968 1131.045166,132.947968 1110.194336,132.947968 
	C1110.194336,155.512131 1110.194336,177.740204 1110.194336,200.996246 
	C1130.142578,200.996246 1149.757324,200.959061 1169.371826,201.031631 
	C1172.770508,201.044205 1173.034424,199.116592 1173.024292,196.493881 
	C1172.971313,182.829437 1172.999756,169.164673 1173.000000,154.500092 
z"/>
<path fill="#FFFFFF" opacity="1.000000" stroke="none" 
	d="
M489.613007,254.000076 
	C489.612762,299.120514 489.612762,343.740906 489.612762,388.679932 
	C468.286713,388.679932 447.396790,388.679932 425.912384,388.679932 
	C425.912384,366.922943 425.912384,345.212891 425.912384,323.255951 
	C404.068207,323.255951 382.815491,323.255951 360.965729,323.255951 
	C360.965729,345.024353 360.965729,366.732483 360.965729,388.716034 
	C340.121155,388.716034 319.870056,388.716034 299.234375,388.716034 
	C299.234375,280.703339 299.234375,172.685394 299.234375,64.333504 
	C362.406982,64.333504 425.639618,64.333504 489.613251,64.333504 
	C489.613251,127.353989 489.613251,190.427032 489.613007,254.000076 
M427.667511,268.464966 
	C427.719940,268.136353 427.818176,267.807800 427.818298,267.479156 
	C427.833679,223.825531 427.806030,180.171799 427.914886,136.518433 
	C427.924133,132.819763 426.400360,132.079559 423.124237,132.097687 
	C404.130310,132.202759 385.135468,132.148956 366.140961,132.148895 
	C364.194489,132.148895 362.247986,132.148911 360.201843,132.148911 
	C360.201843,178.303131 360.201843,223.849792 360.201843,269.723572 
	C376.338318,269.723572 392.127197,269.723572 408.844238,269.934265 
	C414.910767,269.635132 420.977295,269.335999 427.667511,268.464966 
z"/>
<path fill="#FFFFFF" opacity="1.000000" stroke="none" 
	d="
M1918.447021,133.953125 
	C1918.447266,110.491318 1918.447266,87.522133 1918.447266,64.277817 
	C1981.968628,64.277817 2045.058105,64.277817 2108.850586,64.277817 
	C2108.850586,172.314575 2108.850586,280.363342 2108.850586,388.919495 
	C2087.921387,388.919495 2066.695801,388.919495 2045.023682,388.919495 
	C2045.023682,411.164124 2045.023682,432.909454 2045.023682,454.905823 
	C2023.839844,454.905823 2003.107544,454.905823 1981.870850,454.905823 
	C1981.870850,432.982727 1981.870850,411.245911 1981.870850,389.108917 
	C1960.781616,389.108917 1940.190796,389.108917 1918.446899,389.108917 
	C1918.446899,303.951477 1918.446899,219.198608 1918.447021,133.953125 
M1979.553101,295.499878 
	C1979.553101,307.783386 1979.553101,320.066864 1979.553101,332.494598 
	C2002.297729,332.494598 2024.512817,332.494598 2046.786499,332.494598 
	C2046.786499,265.610199 2046.786499,199.069077 2046.786499,132.438660 
	C2024.321777,132.438660 2002.232910,132.438660 1979.552734,132.438660 
	C1979.552734,186.641586 1979.552734,240.570724 1979.553101,295.499878 
z"/>
<path fill="#FFFFFF" opacity="1.000000" stroke="none" 
	d="
M44.851028,213.000000 
	C44.850975,163.214584 44.850975,113.929176 44.850975,64.322296 
	C109.922737,64.322296 174.645477,64.322296 239.758820,64.322296 
	C239.758820,151.283463 239.758820,238.300476 239.758820,325.809021 
	C197.455170,325.809021 155.063736,325.809021 111.702255,325.809021 
	C111.702255,346.963654 111.702255,367.633209 111.702255,388.648499 
	C89.012444,388.648499 67.291183,388.648499 44.851086,388.648499 
	C44.851086,330.286469 44.851086,271.893219 44.851028,213.000000 
M179.903412,269.740479 
	C180.268936,268.093323 180.951431,266.446625 180.953705,264.798981 
	C181.012299,222.350174 181.002518,179.901291 180.990295,137.452408 
	C180.989822,135.837708 180.846878,134.223022 180.764557,132.486420 
	C156.736115,132.486420 133.043015,132.486420 109.301208,132.486420 
	C109.301208,178.350235 109.301208,223.875900 109.301208,269.724121 
	C127.037933,269.724121 144.476303,269.724121 162.841812,269.934692 
	C168.256577,269.864502 173.671326,269.794312 179.903412,269.740479 
z"/>
<path fill="#FFFFFF" opacity="1.000000" stroke="none" 
	d="
M738.613037,231.000076 
	C738.612793,262.791260 738.612793,294.082428 738.612793,325.901672 
	C695.626709,325.901672 653.082153,325.901672 609.566284,325.901672 
	C609.566284,347.103088 609.566284,367.776367 609.566284,388.717773 
	C586.998535,388.717773 565.402344,388.717773 543.402588,388.717773 
	C543.402588,280.806671 543.402588,172.779984 543.402588,64.376434 
	C608.100159,64.376434 672.981873,64.376434 738.613220,64.376434 
	C738.613220,119.685318 738.613220,175.092682 738.613037,231.000076 
M654.234314,269.851074 
	C662.343079,269.851074 670.451843,269.851074 678.849121,269.851074 
	C678.849121,223.675537 678.849121,178.171341 678.849121,132.440704 
	C654.859131,132.440704 631.156250,132.440704 607.250854,132.440704 
	C607.250854,178.258652 607.250854,223.784637 607.250854,269.850983 
	C622.761536,269.850983 638.027588,269.850983 654.234314,269.851074 
z"/>
<path fill="#FFFFFF" opacity="1.000000" stroke="none" 
	d="
M1544.000000,206.000000 
	C1544.000000,158.537506 1544.000000,111.575005 1544.000000,64.306549 
	C1566.519653,64.306549 1588.753540,64.306549 1611.425293,64.306549 
	C1611.425293,151.429199 1611.425293,238.512924 1611.425293,326.310974 
	C1653.204346,326.310974 1694.556641,326.310974 1736.227783,326.310974 
	C1736.227783,347.436981 1736.227783,367.851105 1736.227783,388.633484 
	C1672.366943,388.633484 1608.500610,388.633484 1544.000000,388.633484 
	C1544.000000,327.989807 1544.000000,267.244904 1544.000000,206.000000 
z"/>
<path fill="#22A7DF" opacity="1.000000" stroke="none" 
	d="
M1173.000000,155.000061 
	C1172.999756,169.164673 1172.971313,182.829437 1173.024292,196.493881 
	C1173.034424,199.116592 1172.770508,201.044205 1169.371826,201.031631 
	C1149.757324,200.959061 1130.142578,200.996246 1110.194336,200.996246 
	C1110.194336,177.740204 1110.194336,155.512131 1110.194336,132.947968 
	C1131.045166,132.947968 1151.756714,132.947968 1173.000000,132.947968 
	C1173.000000,140.249557 1173.000000,147.374817 1173.000000,155.000061 
M1154.000000,193.358154 
	C1154.090942,194.795792 1154.181885,196.233414 1154.271118,197.643219 
	C1159.665771,197.643219 1164.709106,197.643219 1169.598633,197.643219 
	C1169.598633,191.236343 1169.598633,185.193054 1169.598633,179.273315 
	C1164.267212,179.273315 1159.341309,179.273315 1154.000000,179.273315 
	C1154.000000,183.820236 1154.000000,188.104233 1154.000000,193.358154 
z"/>
<path fill="#22A7DF" opacity="1.000000" stroke="none" 
	d="
M407.916077,269.723572 
	C392.127197,269.723572 376.338318,269.723572 360.201843,269.723572 
	C360.201843,223.849792 360.201843,178.303131 360.201843,132.148911 
	C362.247986,132.148911 364.194489,132.148895 366.140961,132.148895 
	C385.135468,132.148956 404.130310,132.202759 423.124237,132.097687 
	C426.400360,132.079559 427.924133,132.819763 427.914886,136.518433 
	C427.806030,180.171799 427.833679,223.825531 427.818298,267.479156 
	C427.818176,267.807800 427.719940,268.136353 427.089203,268.604309 
	C426.279541,268.414124 426.048187,268.084625 425.829651,267.303894 
	C425.842468,240.307648 425.842468,213.762650 425.842468,187.433899 
	C419.452972,187.433899 413.895172,187.433899 408.182587,187.433899 
	C408.182587,214.496307 408.182587,241.125259 408.125763,268.080811 
	C408.017975,268.846100 407.967010,269.284851 407.916077,269.723572 
z"/>
<path fill="#59BDE7" opacity="1.000000" stroke="none" 
	d="
M425.816833,267.755127 
	C426.048187,268.084625 426.279541,268.414124 426.777344,268.890259 
	C420.977295,269.335999 414.910767,269.635132 408.380157,269.828918 
	C407.967010,269.284851 408.017975,268.846100 408.575989,268.151093 
	C414.660980,267.848236 420.238922,267.801697 425.816833,267.755127 
z"/>
<path fill="#0871B2" opacity="1.000000" stroke="none" 
	d="
M1979.552979,294.999878 
	C1979.552734,240.570724 1979.552734,186.641586 1979.552734,132.438660 
	C2002.232910,132.438660 2024.321777,132.438660 2046.786499,132.438660 
	C2046.786499,199.069077 2046.786499,265.610199 2046.786499,332.494598 
	C2024.512817,332.494598 2002.297729,332.494598 1979.553101,332.494598 
	C1979.553101,320.066864 1979.553101,307.783386 1979.552979,294.999878 
M2032.550415,328.000000 
	C2035.640503,328.000000 2038.730469,328.000000 2041.602783,328.000000 
	C2041.602783,279.263306 2041.602783,231.229385 2041.602783,183.410828 
	C2035.800903,183.410828 2030.567505,183.410828 2025.434814,183.410828 
	C2025.434814,231.738510 2025.434814,279.654907 2025.434814,328.000000 
	C2027.665039,328.000000 2029.626831,328.000000 2032.550415,328.000000 
z"/>
<path fill="#22A7DF" opacity="1.000000" stroke="none" 
	d="
M161.914642,269.724121 
	C144.476303,269.724121 127.037933,269.724121 109.301208,269.724121 
	C109.301208,223.875900 109.301208,178.350235 109.301208,132.486420 
	C133.043015,132.486420 156.736115,132.486420 180.764557,132.486420 
	C180.846878,134.223022 180.989822,135.837708 180.990295,137.452408 
	C181.002518,179.901291 181.012299,222.350174 180.953705,264.798981 
	C180.951431,266.446625 180.268936,268.093323 179.485443,269.438843 
	C179.038406,268.746582 179.009338,268.355988 179.048752,267.503296 
	C179.117233,240.485153 179.117233,213.929047 179.117233,187.359100 
	C173.190598,187.359100 167.647797,187.359100 162.019730,187.359100 
	C162.019730,214.467010 162.019730,241.216187 161.998505,268.258362 
	C161.956390,268.942261 161.935516,269.333191 161.914642,269.724121 
z"/>
<path fill="#59BDE7" opacity="1.000000" stroke="none" 
	d="
M162.378235,269.829407 
	C161.935516,269.333191 161.956390,268.942261 162.464508,268.271729 
	C168.294586,267.983185 173.637421,267.974274 178.980270,267.965363 
	C179.009338,268.355988 179.038406,268.746582 179.076782,269.430664 
	C173.671326,269.794312 168.256577,269.864502 162.378235,269.829407 
z"/>
<path fill="#22A7DF" opacity="1.000000" stroke="none" 
	d="
M653.764038,269.851013 
	C638.027588,269.850983 622.761536,269.850983 607.250854,269.850983 
	C607.250854,223.784637 607.250854,178.258652 607.250854,132.440704 
	C631.156250,132.440704 654.859131,132.440704 678.849121,132.440704 
	C678.849121,178.171341 678.849121,223.675537 678.849121,269.851074 
	C670.451843,269.851074 662.343079,269.851074 653.764038,269.851013 
M677.613220,208.500259 
	C677.613220,201.414719 677.613220,194.329178 677.613220,187.319153 
	C671.396912,187.319153 665.977173,187.319153 660.531006,187.319153 
	C660.531006,214.344177 660.531006,241.048233 660.531006,267.685608 
	C666.337158,267.685608 671.755554,267.685608 677.612793,267.685608 
	C677.612793,248.083130 677.612793,228.791656 677.613220,208.500259 
z"/>
<path fill="#FFFFFF" opacity="1.000000" stroke="none" 
	d="
M1154.000000,192.873199 
	C1154.000000,188.104233 1154.000000,183.820236 1154.000000,179.273315 
	C1159.341309,179.273315 1164.267212,179.273315 1169.598633,179.273315 
	C1169.598633,185.193054 1169.598633,191.236343 1169.598633,197.643219 
	C1164.709106,197.643219 1159.665771,197.643219 1154.271118,197.643219 
	C1154.181885,196.233414 1154.090942,194.795792 1154.000000,192.873199 
z"/>
<path fill="#FFFFFF" opacity="1.000000" stroke="none" 
	d="
M425.829651,267.303894 
	C420.238922,267.801697 414.660980,267.848236 408.632812,267.824524 
	C408.182587,241.125259 408.182587,214.496307 408.182587,187.433899 
	C413.895172,187.433899 419.452972,187.433899 425.842468,187.433899 
	C425.842468,213.762650 425.842468,240.307648 425.829651,267.303894 
z"/>
<path fill="#FFFFFF" opacity="1.000000" stroke="none" 
	d="
M2032.069458,328.000000 
	C2029.626831,328.000000 2027.665039,328.000000 2025.434814,328.000000 
	C2025.434814,279.654907 2025.434814,231.738510 2025.434814,183.410828 
	C2030.567505,183.410828 2035.800903,183.410828 2041.602783,183.410828 
	C2041.602783,231.229385 2041.602783,279.263306 2041.602783,328.000000 
	C2038.730469,328.000000 2035.640503,328.000000 2032.069458,328.000000 
z"/>
<path fill="#FFFFFF" opacity="1.000000" stroke="none" 
	d="
M179.048752,267.503296 
	C173.637421,267.974274 168.294586,267.983185 162.485733,267.978729 
	C162.019730,241.216187 162.019730,214.467010 162.019730,187.359100 
	C167.647797,187.359100 173.190598,187.359100 179.117233,187.359100 
	C179.117233,213.929047 179.117233,240.485153 179.048752,267.503296 
z"/>
<path fill="#FFFFFF" opacity="1.000000" stroke="none" 
	d="
M677.613037,209.000214 
	C677.612793,228.791656 677.612793,248.083130 677.612793,267.685608 
	C671.755554,267.685608 666.337158,267.685608 660.531006,267.685608 
	C660.531006,241.048233 660.531006,214.344177 660.531006,187.319153 
	C665.977173,187.319153 671.396912,187.319153 677.613220,187.319153 
	C677.613220,194.329178 677.613220,201.414719 677.613037,209.000214 
z"/>
</svg>